#!OML:ASF F:\VICON\USERDATA\INSTALL\rory3\rory3.ASF
:FULLY-SPECIFIED
:DEGREES
16
root 2.15603 17.6796 -22.8625 -3.12795 1.22996 3.81014
lowerback 16.7392 -1.38302 -5.60861
upperback -0.108657 -2.78823 1.49053
thorax -9.19109 -1.03783 5.48571
lowerneck -13.7398 -0.0632408 -1.99386
upperneck 23.675 1.24578 -3.3893
head 9.79225 0.00572386 -0.69166
rclavicle 1.35174e-014 3.18055e-015
rhumerus -31.6487 -8.68304 -80.0437
rradius 34.8487
rwrist 1.11559
rhand -12.6447 10.4264
rfingers 7.12502
rthumb 13.4357 -19.1203
lclavicle 1.35174e-014 3.18055e-015
lhumerus -30.0134 0.128399 85.5962
lradius 45.7318
lwrist 7.7684
lhand -14.7991 50.4716
lfingers 7.12502
lthumb 11.3586 80.144
rfemur -26.5491 5.97502 14.698
rtibia 18.5858
rfoot -16.0434 -19.1389
rtoes 0.324234
lfemur 11.8668 -1.46344 -30.1914
ltibia 12.1163
lfoot -12.684 0.524516
ltoes -2.35809
17
root 2.14296 17.6682 -22.7307 -2.98062 1.3657 3.67766
lowerback 16.9467 -1.36836 -5.60834
upperback -0.389873 -2.77705 1.60191
thorax -9.61607 -1.00348 5.62808
lowerneck -13.4038 0.0561273 -1.83935
upperneck 23.6586 1.3905 -3.49559
head 9.725 0.0785201 -0.736279
rclavicle 3.84151e-014 -6.36111e-015
rhumerus -32.3128 -8.50136 -79.8891
rradius 34.9791
rwrist 0.973429
rhand -12.4635 10.1466
rfingers 7.12502
rthumb 13.6103 -19.3884
lclavicle 3.84151e-014 -6.36111e-015
lhumerus -30.6647 0.0905484 85.8402
lradius 45.7558
lwrist 8.20732
lhand -14.8847 49.1567
lfingers 7.12502
lthumb 11.276 78.8336
rfemur -26.7073 6.62093 14.5961
rtibia 18.0701
rfoot -17.3625 -19.5111
rtoes 0.829781
lfemur 12.4207 -1.4136 -29.9646
ltibia 11.5887
lfoot -12.4922 0.357712
ltoes -3.62583
18
root 2.1374 17.6607 -22.5947 -2.82792 1.64326 3.80322
lowerback 16.668 -1.41279 -5.77082
upperback -0.340573 -2.84933 1.62093
thorax -9.38525 -1.04177 5.74104
lowerneck -13.2956 0.0546529 -1.67977
upperneck 23.4222 1.37304 -3.6376
head 9.62208 0.0746812 -0.812615
rclavicle -5.27276e-014 2.38542e-015
rhumerus -32.2822 -8.55009 -79.8108
rradius 34.8719
rwrist 1.02844
rhand -12.3061 9.62528
rfingers 7.12502
rthumb 13.7621 -19.8996
lclavicle -5.27276e-014 2.38542e-015
lhumerus -30.6078 0.141324 86.03
lradius 45.4579
lwrist 8.61729
lhand -15.2613 48.5548
lfingers 7.12502
lthumb 10.9127 78.2512
rfemur -26.8851 6.01813 14.5682
rtibia 17.9138
rfoot -16.9604 -19.1971
rtoes -0.47118
lfemur 12.9285 -1.53287 -30.0649
ltibia 11.2982
lfoot -12.2141 0.210138
ltoes -3.71591
19
root 2.1344 17.6511 -22.4555 -2.71836 2.12814 4.14396
lowerback 16.7135 -1.57144 -6.03839
upperback -0.548562 -3.12831 1.55163
thorax -9.59398 -1.14899 5.89352
lowerneck -12.6656 0.0701787 -1.65066
upperneck 23.229 1.37644 -3.712
head 9.43522 0.0809086 -0.840348
rclavicle 2.07233e-014 2.38542e-015
rhumerus -32.7255 -8.29085 -79.7082
rradius 34.7243
rwrist 0.997199
rhand -12.4034 9.48165
rfingers 7.12502
rthumb 13.6683 -20.0495
lclavicle 2.07233e-014 2.38542e-015
lhumerus -30.9788 0.357723 86.1213
lradius 45.1697
lwrist 8.4324
lhand -15.2148 48.8697
lfingers 7.12502
lthumb 10.9576 78.5638
rfemur -27.0271 4.75343 14.4833
rtibia 18.1807
rfoot -16.3792 -18.6226
rtoes -0.878515
lfemur 13.413 -1.74512 -30.3953
ltibia 11.2431
lfoot -12.0662 -0.120506
ltoes -3.32468
20
root 2.11711 17.6444 -22.3125 -2.68058 1.93495 3.87407
lowerback 16.6391 -1.51601 -5.89999
upperback -0.627346 -3.01783 1.62702
thorax -9.65739 -1.09617 5.87084
lowerneck -12.215 0.110141 -1.548
upperneck 22.9607 1.38632 -3.72458
head 9.25635 0.103253 -0.858003
rclavicle 1.35671e-014 7.95139e-015
rhumerus -33.0558 -8.24559 -79.7006
rradius 34.4926
rwrist 1.14431
rhand -12.912 9.85708
rfingers 7.12502
rthumb 13.1781 -19.7064
lclavicle 1.35671e-014 7.95139e-015
lhumerus -31.3196 0.397426 86.1736
lradius 45.2569
lwrist 8.19125
lhand -15.0979 50.2904
lfingers 7.12502
lthumb 11.0703 79.9784
rfemur -27.2983 4.51724 15.1195
rtibia 18.7788
rfoot -16.0278 -18.4878
rtoes -0.499024
lfemur 14.0305 -1.71199 -30.0483
ltibia 10.9128
lfoot -11.8626 -0.261643
ltoes -2.99787
21
root 2.106 17.633 -22.178 -2.49466 1.5509 3.75811
lowerback 16.6695 -1.37926 -5.84563
upperback -0.917572 -2.83261 1.65565
thorax -10.0253 -0.985061 5.84212
lowerneck -11.303 0.101479 -1.53929
upperneck 22.5688 1.31236 -3.66507
head 8.94716 0.0930864 -0.843223
rclavicle 5.91384e-015 -1.59028e-014
rhumerus -33.6315 -8.29111 -79.608
rradius 34.2284
rwrist 1.40679
rhand -13.4011 10.0467
rfingers 7.12502
rthumb 12.7065 -19.5467
lclavicle 5.91384e-015 -1.59028e-014
lhumerus -32.0752 0.580641 86.1528
lradius 45.0147
lwrist 8.23874
lhand -15.9544 49.7651
lfingers 7.12502
lthumb 10.2442 79.4956
rfemur -27.8105 3.96625 15.7233
rtibia 19.5199
rfoot -15.1027 -17.9795
rtoes -0.292094
lfemur 14.3991 -1.5575 -29.9017
ltibia 10.6976
lfoot -11.6357 -0.194625
ltoes -4.3978
22
root 2.09562 17.6177 -22.0276 -2.59721 1.34074 3.89705
lowerback 16.8929 -1.18669 -5.91376
upperback -0.555676 -2.60086 1.57815
thorax -9.78273 -0.892967 5.73859
lowerneck -12.9287 0.0099202 -1.53795
upperneck 22.9945 1.22606 -3.54612
head 9.39886 0.0413631 -0.818202
rclavicle -9.29318e-015 2.3059e-014
rhumerus -33.0312 -8.75834 -79.6546
rradius 34.0527
rwrist 1.59761
rhand -13.47 9.77491
rfingers 7.12502
rthumb 12.6401 -19.8226
lclavicle -9.29318e-015 2.3059e-014
lhumerus -31.3734 0.695476 86.2253
lradius 45.0308
lwrist 7.91671
lhand -15.6981 51.3792
lfingers 7.12502
lthumb 10.4914 81.0974
rfemur -27.7649 3.04084 16.1325
rtibia 20.1042
rfoot -13.9252 -17.0245
rtoes -0.203799
lfemur 14.8791 -1.43281 -30.0472
ltibia 11.0189
lfoot -11.6725 -0.0985307
ltoes -6.00566
23
root 2.06907 17.6189 -21.8714 -2.77007 1.85436 3.93694
lowerback 16.9814 -1.33263 -6.19227
upperback -0.665109 -2.85112 1.66139
thorax -9.90345 -0.98689 6.05887
lowerneck -12.2608 -0.154087 -1.68027
upperneck 23.2078 1.0415 -3.6623
head 9.34614 -0.0674737 -0.856257
rclavicle -1.59028e-015 5.56597e-015
rhumerus -33.6266 -8.65382 -79.4332
rradius 33.9591
rwrist 1.52882
rhand -13.0099 10.1619
rfingers 7.12502
rthumb 13.0837 -19.4077
lclavicle -1.59028e-015 5.56597e-015
lhumerus -32.1639 1.07215 86.3689
lradius 45.1608
lwrist 8.01588
lhand -15.8904 47.903
lfingers 7.12502
lthumb 10.3059 77.6305
rfemur -27.3171 2.87602 16.2413
rtibia 20.6052
rfoot -13.5707 -16.8998
rtoes 0.748798
lfemur 15.4101 -1.714 -29.9432
ltibia 11.3674
lfoot -11.4745 -0.281095
ltoes -7.96766
24
root 2.04957 17.6305 -21.7195 -2.8568 2.1872 3.81374
lowerback 17.0281 -1.29342 -5.99554
upperback -0.0119967 -2.74624 1.62554
thorax -9.22916 -0.996136 5.85791
lowerneck -14.6821 -0.293696 -1.56732
upperneck 23.5515 0.861883 -3.45307
head 9.9241 -0.14636 -0.835564
rclavicle -1.51076e-014 -1.35174e-014
rhumerus -32.5077 -9.53109 -79.4638
rradius 33.6098
rwrist 1.72982
rhand -13.0348 10.193
rfingers 7.12502
rthumb 13.0597 -19.3781
lclavicle -1.51076e-014 -1.35174e-014
lhumerus -31.0541 1.08028 86.4129
lradius 44.3105
lwrist 8.59495
lhand -15.658 47.8122
lfingers 7.12502
lthumb 10.5301 77.5285
rfemur -26.9507 2.71938 16.5487
rtibia 21.0865
rfoot -12.904 -16.5004
rtoes 1.58176
lfemur 15.7148 -1.88332 -29.689
ltibia 11.8355
lfoot -11.2401 -0.457368
ltoes -9.69904
25
root 2.03396 17.6434 -21.5581 -2.91115 2.42098 3.62415
lowerback 16.9473 -1.42344 -5.93813
upperback -0.205962 -2.89646 1.74672
thorax -9.37333 -1.05618 5.99684
lowerneck -13.6733 -0.134013 -1.61686
upperneck 23.1889 1.03593 -3.38775
head 9.60453 -0.0467993 -0.776135
rclavicle 1.09332e-015 1.82882e-014
rhumerus -33.1915 -9.27782 -79.2605
rradius 33.3989
rwrist 1.80802
rhand -13.1396 9.67382
rfingers 7.12502
rthumb 12.9586 -19.9038
lclavicle 1.09332e-015 1.82882e-014
lhumerus -31.8743 1.38021 86.5498
lradius 44.9902
lwrist 7.94362
lhand -15.8585 49.1154
lfingers 7.12502
lthumb 10.3367 78.8414
rfemur -26.5524 2.44767 16.9783
rtibia 21.5069
rfoot -12.2922 -15.6447
rtoes 3.38917
lfemur 15.8071 -2.02189 -29.3485
ltibia 12.7139
lfoot -11.1565 -0.742566
ltoes -10.4375
26
root 2.01856 17.6404 -21.3929 -3.01088 2.55486 3.38366
lowerback 17.0201 -1.48568 -5.76428
upperback -0.432413 -2.94624 1.83245
thorax -9.66243 -1.06667 6.01763
lowerneck -12.9104 -0.0189876 -1.60199
upperneck 23.0991 1.15713 -3.35345
head 9.42926 0.0236239 -0.749785
rclavicle 5.91384e-015 2.14687e-014
rhumerus -33.8741 -9.22244 -79.0627
rradius 33.1703
rwrist 1.83768
rhand -13.0416 10.1926
rfingers 7.12502
rthumb 13.0531 -19.3789
lclavicle 5.91384e-015 2.14687e-014
lhumerus -32.6088 1.4415 86.7331
lradius 44.6998
lwrist 8.72044
lhand -15.9427 51.4669
lfingers 7.12502
lthumb 10.2554 81.1969
rfemur -26.1204 2.29192 17.466
rtibia 21.9209
rfoot -11.6337 -14.612
rtoes 3.7184
lfemur 15.9506 -2.13508 -28.9829
ltibia 13.6238
lfoot -11.0393 -0.958278
ltoes -12.437
